HIERARCHY
ROOT Hips
{
	OFFSET 0.000000 0.000000 0.000000
	CHANNELS 6 Xposition Yposition Zposition Zrotation Yrotation Xrotation 
	JOINT LHipJoint
	{
		OFFSET 0.000000 0.000000 0.000000
		CHANNELS 3 Zrotation Yrotation Xrotation
		JOINT LeftUpLeg
		{
			OFFSET 1.363060 -1.794630 0.839290
			CHANNELS 3 Zrotation Yrotation Xrotation
			JOINT LeftLeg
			{
				OFFSET 2.448110 -6.726130 0.000000
				CHANNELS 3 Zrotation Yrotation Xrotation
				JOINT LeftFoot
				{
					OFFSET 2.562200 -7.039590 0.000000
					CHANNELS 3 Zrotation Yrotation Xrotation
					JOINT LeftToeBase
					{
						OFFSET 0.157640 -0.433110 2.322550
						CHANNELS 3 Zrotation Yrotation Xrotation
						End Site
						{
							OFFSET 0.000000 0.000000 0.000000
						}
					}
				}
			}
		}
	}
	JOINT RHipJoint
	{
		OFFSET 0.000000 0.000000 0.000000
		CHANNELS 3 Zrotation Yrotation Xrotation
		JOINT RightUpLeg
		{
			OFFSET -1.305520 -1.794630 0.839290
			CHANNELS 3 Zrotation Yrotation Xrotation
			JOINT RightLeg
			{
				OFFSET -2.542530 -6.985550 0.000000
				CHANNELS 3 Zrotation Yrotation Xrotation
				JOINT RightFoot
				{
					OFFSET -2.568260 -7.056230 0.000000
					CHANNELS 3 Zrotation Yrotation Xrotation
					JOINT RightToeBase
					{
						OFFSET -0.164730 -0.452590 2.363150
						CHANNELS 3 Zrotation Yrotation Xrotation
						End Site
						{
							OFFSET 0.000000 0.000000 0.000000
						}
					}
				}
			}
		}
	}
	JOINT LowerBack
	{
		OFFSET 0.000000 0.000000 0.000000
		CHANNELS 3 Zrotation Yrotation Xrotation
		JOINT Spine
		{
			OFFSET 0.028270 2.035590 -0.193380
			CHANNELS 3 Zrotation Yrotation Xrotation
			JOINT Spine1
			{
				OFFSET 0.056720 2.048850 -0.042750
				CHANNELS 3 Zrotation Yrotation Xrotation
				JOINT Neck
				{
					OFFSET 0.000000 0.000000 0.000000
					CHANNELS 3 Zrotation Yrotation Xrotation
					JOINT Neck1
					{
						OFFSET -0.054170 1.746240 0.172020
						CHANNELS 3 Zrotation Yrotation Xrotation
						JOINT Head
						{
							OFFSET 0.104070 1.761360 -0.123970
							CHANNELS 3 Zrotation Yrotation Xrotation
							End Site
							{
								OFFSET 0.000000 0.000000 0.000000
							}
						}
					}
				}
				JOINT LeftShoulder
				{
					OFFSET 0.000000 0.000000 0.000000
					CHANNELS 3 Zrotation Yrotation Xrotation
					JOINT LeftArm
					{
						OFFSET 3.362410 1.200890 -0.311210
						CHANNELS 3 Zrotation Yrotation Xrotation
						JOINT LeftForeArm
						{
							OFFSET 4.983000 -0.000000 -0.000000
							CHANNELS 3 Zrotation Yrotation Xrotation
							JOINT LeftHand
							{
								OFFSET 3.483560 -0.000000 -0.000000
								CHANNELS 3 Zrotation Yrotation Xrotation
								JOINT LeftFingerBase
								{
									OFFSET 0.000000 0.000000 0.000000
									CHANNELS 3 Zrotation Yrotation Xrotation
									JOINT LeftHandIndex1
									{
										OFFSET 0.715260 -0.000000 -0.000000
										CHANNELS 3 Zrotation Yrotation Xrotation
										End Site
										{
											OFFSET 0.000000 0.000000 0.000000
										}
									}
								}
								JOINT LThumb
								{
									OFFSET 0.000000 0.000000 0.000000
									CHANNELS 3 Zrotation Yrotation Xrotation
									End Site
									{
										OFFSET 0.000000 0.000000 0.000000
									}
								}
							}
						}
					}
				}
				JOINT RightShoulder
				{
					OFFSET 0.000000 0.000000 0.000000
					CHANNELS 3 Zrotation Yrotation Xrotation
					JOINT RightArm
					{
						OFFSET -3.136600 1.374050 -0.404650
						CHANNELS 3 Zrotation Yrotation Xrotation
						JOINT RightForeArm
						{
							OFFSET -5.241900 -0.000000 -0.000000
							CHANNELS 3 Zrotation Yrotation Xrotation
							JOINT RightHand
							{
								OFFSET -3.444170 -0.000000 -0.000000
								CHANNELS 3 Zrotation Yrotation Xrotation
								JOINT RightFingerBase
								{
									OFFSET 0.000000 0.000000 0.000000
									CHANNELS 3 Zrotation Yrotation Xrotation
									JOINT RightHandIndex1
									{
										OFFSET -0.622530 -0.000000 -0.000000
										CHANNELS 3 Zrotation Yrotation Xrotation
										End Site
										{
											OFFSET 0.000000 0.000000 0.000000
										}
									}
								}
								JOINT RThumb
								{
									OFFSET 0.000000 0.000000 0.000000
									CHANNELS 3 Zrotation Yrotation Xrotation
									End Site
									{
										OFFSET 0.000000 0.000000 0.000000
									}
								}
							}
						}
					}
				}
			}
		}
	}
}
MOTION
Frames: 7
Frame Time: 0.008333
10.160795 17.512421 -0.502458 1.602108 -31.104385 -2.117128 -1.472911 2.887323 1.929673 -15.925764 5.993426 -26.110121 2.600471 11.874537 36.033230 -2.918808 13.622320 -8.481204 0.032200 -1.158900 -3.186100 -0.808393 -4.021788 2.189604 17.542788 0.623270 -9.554350 -2.693292 -9.724610 33.716326 0.106809 -7.526577 -19.240689 -0.333900 3.713600 -10.272400 -1.538987 2.039472 10.239365 -0.065976 2.513951 2.750637 -0.644755 1.297921 0.701930 -3.344721 3.312964 -12.695770 -1.293041 4.409348 -5.680274 -0.466000 1.952200 1.445500 -4.924394 -1.945437 0.406308 -81.113738 5.132078 42.999448 125.861908 -52.655695 -89.916489 0.144660 0.490432 -20.266340 28.443991 3.432507 1.589600 -7.125000 0.000000 0.000000 1.253900 33.349800 -0.358200 7.333617 1.903880 -0.311747 65.646232 -0.974615 47.581411 -120.298867 54.233155 -84.674108 -0.089443 -0.756524 1.669379 -32.910858 27.186297 -16.922600 7.125000 0.000000 0.000000 -1.379200 2.465900 -1.437700 
10.162015 17.491070 -0.500628 2.177639 -31.740426 -2.617365 -1.497943 2.906222 1.952115 -16.367324 6.329357 -26.076331 2.682045 11.952452 36.395326 -2.912963 13.736211 -9.075542 0.019800 -0.908800 -2.497800 -0.838747 -4.025979 2.188077 16.960172 0.820389 -9.608147 -2.792619 -9.869149 34.150515 0.022037 -7.090838 -19.172850 -0.321000 3.641500 -10.070300 -1.579436 1.925252 10.084121 0.008133 2.364701 2.737899 -0.496004 1.222051 0.790783 -3.354975 3.659546 -12.159932 -1.778372 4.822186 -5.838248 -0.571900 2.160600 1.319300 -4.922574 -1.983221 0.416260 -81.343949 5.148655 43.119416 125.849413 -52.653224 -89.897168 0.143358 0.489723 -20.144716 28.256762 3.350237 1.533700 -7.125000 0.000000 0.000000 1.103600 33.251400 -0.317800 7.324064 1.923568 -0.318943 65.895539 -2.626694 47.334179 -121.174570 53.997284 -85.459013 -0.087290 -0.752403 1.907505 -32.582851 27.583218 -16.924900 7.125000 0.000000 0.000000 -1.116600 2.795700 -1.169900 
10.165268 17.465449 -0.522792 1.354974 -32.271379 -2.286043 -1.431848 2.910569 1.937414 -15.563004 6.564786 -26.294625 2.744803 12.040825 36.555690 -3.027492 14.083829 -8.954754 0.008000 -0.578900 -1.590800 -0.865177 -3.998696 2.149460 17.848273 1.251387 -9.670218 -2.903136 -10.005742 34.686324 -0.065035 -6.874454 -19.431951 -0.255300 3.250800 -8.977800 -0.527187 1.633689 10.170698 0.367418 2.100764 2.659253 -0.575171 1.115947 0.659410 -2.960916 4.038856 -12.205220 -2.621899 5.293709 -5.306913 -0.816800 2.387100 1.501900 -4.924444 -1.987515 0.423015 -81.562400 5.122614 42.979715 125.859436 -52.650403 -89.896813 0.134114 0.484552 -19.629587 27.435581 3.642327 1.632700 -7.125000 0.000000 0.000000 0.440600 33.559500 -0.123600 7.315509 1.959530 -0.316488 65.961361 -4.111100 47.354314 -121.931637 53.783564 -86.133707 -0.076933 -0.750048 1.994242 -32.777189 27.581513 -17.048100 7.125000 0.000000 0.000000 -1.236200 2.847100 -1.296400 
10.166387 17.437184 -0.539873 1.201280 -33.177070 -2.519902 -1.412829 2.953994 1.972734 -15.293693 7.113034 -26.270588 2.804680 12.100332 36.766163 -2.999305 14.043330 -9.410043 0.006500 -0.519800 -1.428300 -0.901468 -3.990998 2.121802 18.065583 1.857407 -9.548704 -3.021044 -10.159347 35.233412 -0.142836 -6.619531 -19.583923 -0.267600 3.327600 -9.192100 -0.167570 1.455902 10.420679 0.584036 1.910836 2.700318 -0.452734 1.022030 0.532212 -2.568114 4.440564 -12.684805 -3.284115 5.853185 -4.416028 -1.000800 2.649600 1.865400 -4.928256 -1.978535 0.432508 -81.861063 5.071769 42.356174 125.860231 -52.659263 -89.886809 0.111096 0.472789 -18.433555 25.564219 4.457853 1.893000 -7.125000 0.000000 0.000000 -1.093000 34.409600 0.284100 7.312412 1.991881 -0.308228 65.906145 -5.505255 47.563130 -122.616294 53.581941 -86.743421 -0.067860 -0.747013 2.095606 -33.528666 27.874931 -17.675500 7.125000 0.000000 0.000000 -1.613200 3.389300 -1.706400 
10.163337 17.412885 -0.530723 2.534105 -34.208925 -3.732879 -1.502663 3.017463 2.057650 -16.258779 7.638307 -25.848557 2.853542 12.112801 37.093344 -2.790223 13.640050 -10.857619 0.001600 -0.258900 -0.711400 -0.938066 -4.009373 2.127358 16.773543 2.285578 -9.409196 -3.154809 -10.356237 35.803533 -0.222118 -6.226364 -19.580728 -0.349700 3.799300 -10.512800 -0.877394 1.489090 10.499359 0.467386 1.871287 2.834060 -0.174805 0.979164 0.619020 -2.340001 4.741050 -12.755439 -3.867248 6.252069 -4.017856 -1.158300 2.837300 2.017400 -4.940054 -1.994824 0.445401 -82.018968 5.089429 42.203541 125.837077 -52.670042 -89.858469 0.105621 0.465559 -17.975336 24.786042 4.451863 1.827800 -7.125000 0.000000 0.000000 -1.725800 34.379600 0.450000 7.306260 2.007827 -0.306011 65.912667 -6.994991 47.593986 -123.238536 53.395118 -87.303018 -0.058941 -0.744043 2.348582 -34.395822 28.186657 -18.401300 7.125000 0.000000 0.000000 -2.048600 3.996100 -2.187700 
10.162625 17.399871 -0.520454 3.584738 -34.650165 -4.658758 -1.571721 3.057803 2.109241 -17.101108 7.905063 -25.527155 2.901639 12.119356 37.319642 -2.781040 13.789606 -11.399725 0.006500 -0.521700 -1.433600 -0.968362 -4.019086 2.128132 15.748907 2.201427 -9.577783 -3.315041 -10.576338 36.471310 -0.272669 -5.989940 -19.604251 -0.455300 4.328500 -12.002800 -1.232810 1.341083 10.427904 0.390706 1.635326 2.925836 -0.019756 0.850881 0.773629 -2.085199 5.056161 -12.611349 -4.474135 6.642685 -3.832809 -1.333900 3.023800 2.077300 -4.952489 -2.017246 0.451913 -82.063602 5.201153 43.141456 125.880869 -52.638797 -89.909341 0.145938 0.484307 -20.415786 27.875988 2.533830 1.087300 -7.125000 0.000000 0.000000 0.797700 32.328800 -0.247500 7.299154 2.025202 -0.305096 65.923367 -8.486855 47.469220 -124.028739 53.157128 -88.005901 -0.048174 -0.740355 2.509817 -34.531719 28.095955 -18.443200 7.125000 0.000000 0.000000 -2.154000 3.933200 -2.298300 
10.161202 17.391534 -0.523606 4.275198 -34.551263 -5.139905 -1.603942 3.054903 2.109556 -17.737547 7.932603 -25.501786 2.972905 12.165658 37.563331 -2.915635 14.247465 -11.016682 0.055200 -1.516600 -4.171600 -0.987675 -4.008571 2.123107 15.133959 2.018532 -9.966621 -3.471280 -10.787763 37.137051 -0.283711 -6.007306 -19.732542 -0.515400 4.601500 -12.775300 -1.477579 0.931165 10.270315 0.397411 1.075478 2.942656 0.219423 0.563083 0.900709 -1.818903 5.442724 -12.534839 -4.930297 7.128772 -3.673689 -1.467500 3.258800 2.144800 -4.958174 -2.030809 0.460202 -82.209830 5.113822 43.033936 125.950347 -52.613214 -89.970579 0.140902 0.485873 -20.499536 27.814500 2.774535 1.208700 -7.125000 0.000000 0.000000 0.749400 32.596300 -0.227700 7.296930 2.039203 -0.305925 65.873829 -9.709270 47.433945 -124.892736 52.888495 -88.762305 -0.043026 -0.735045 2.436641 -34.051242 28.175479 -18.173300 7.125000 0.000000 0.000000 -1.869000 3.860300 -1.991700 
